<svg width="1141" height="1141" viewBox="0 0 1141 1141" fill="none" xmlns="http://www.w3.org/2000/svg">
<path fill-rule="evenodd" clip-rule="evenodd" d="M545.902 0.348725C501.728 2.28772 450.628 10.9487 407.902 23.7377C314.469 51.7037 229.325 103.003 162.879 171.365C65.2854 271.771 9.29237 398.958 0.934366 539.22C-5.28363 643.582 19.7084 753.174 70.6644 844.984L77.7484 857.748L74.3414 862.811C65.2644 876.3 65.8154 895.21 75.6624 908.126C93.3784 931.362 128.92 927.741 141.899 901.378L145.206 894.66L145.675 887.36L146.143 880.061L144.446 874.223C140.793 861.658 130.018 850.554 118.124 847.096L112.585 845.486L104.493 845.97C100.043 846.237 95.6544 846.772 94.7394 847.161L93.0764 847.867L89.0064 840.898C82.6074 829.941 70.9154 806.534 64.1924 791.22C40.3844 736.991 24.9314 675.966 19.7494 615.72C18.1384 596.989 18.1434 544.36 19.7584 525.72C30.2054 405.12 76.7504 295.671 156.054 205.22C221.616 130.443 309.246 73.4577 404.902 43.3937C464.838 24.5567 530.156 15.9447 592.241 18.6947C623.477 20.0777 632.193 21.0077 664.292 26.3797C760.701 42.5147 851.775 84.9087 926.899 148.622C933.772 154.451 941.764 161.357 944.659 163.97L949.923 168.72H953.738H957.553L959.928 166.193C961.521 164.496 962.302 162.479 962.302 160.056V156.447L954.852 149.318C939.851 134.964 912.751 113.466 890.902 98.5867C819.054 49.6577 735.729 17.5897 649.682 5.75172C617.505 1.32372 574.575 -0.911275 545.902 0.348725ZM534.902 79.3787C518.016 80.6217 492.737 84.1187 474.335 87.7557C429.756 96.5667 388.144 111.017 347.05 131.956L329.698 140.797L325.05 137.84C318.122 133.432 309.93 131.391 301.37 131.94L294.179 132.402L287.743 135.414C276.778 140.545 270.114 148.099 266.387 159.624L264.639 165.027L265.146 173.156L265.654 181.285L268.855 187.628C272.902 195.645 279.752 202.528 287.424 206.289L293.402 209.22H303.902H314.402L320.402 206.236C328.653 202.134 337.09 193.435 339.982 186.048L342.263 180.22L342.332 171.72C342.37 167.045 342.022 161.403 341.558 159.182L340.714 155.143L358.058 146.553C410.762 120.449 458.291 106.317 517.902 99.0247L532.402 97.2507L568.902 97.2357C615.026 97.2157 636.018 99.3337 674.312 107.872C784.409 132.421 881.876 195.496 950.248 286.442C990.631 340.158 1020.86 407.086 1034.38 472.734C1041.59 507.77 1044.15 533.328 1044.11 570.22C1044.08 606.499 1041.73 630.616 1034.88 664.72C1019.7 740.357 987.154 808.985 937.433 870.22C926.435 883.766 925.389 885.539 926.287 889.119C927.896 895.528 936.34 897.988 941.221 893.47C947.098 888.03 968.62 860.096 979.937 843.22C996.861 817.983 1016.42 780.723 1027.72 752.22C1053.5 687.15 1065.2 617.069 1061.89 547.513C1055.43 411.535 994.406 286.119 891.587 197.519C816.371 132.705 723.998 92.4657 624.402 81.1277C610.936 79.5947 548.524 78.3747 534.902 79.3787ZM295.402 151.622C283.858 156.983 279.724 169.408 285.686 180.821L288.471 186.151L293.801 188.936C300.339 192.351 306.117 192.544 313.019 189.574L318.006 187.429L321.172 182.827L324.339 178.225L324.731 172.061L325.124 165.898L322.298 160.707L319.473 155.515L314.437 152.627L309.402 149.739L304.402 149.751C301.652 149.758 297.602 150.6 295.402 151.622ZM1016.13 217.719C1005.92 219.881 994.065 229.753 989.375 239.997C987.989 243.026 986.68 248.255 986.309 252.254L985.66 259.229L987.267 265.5C990.24 277.106 998.573 287.002 1009.48 291.884C1012.88 293.405 1017.03 294.216 1022.9 294.506L1031.4 294.927L1037.4 292.778C1040.7 291.596 1044.06 290.537 1044.86 290.425C1047.95 289.99 1068.72 329.946 1081.44 360.815C1102.7 412.403 1115.09 463.802 1121.06 525.22C1122.72 542.361 1122.74 596.3 1121.08 614.22C1111.99 712.403 1082.45 797.396 1029.86 876.72C985.745 943.248 922.425 1003.66 855.402 1043.17C849.902 1046.41 842.884 1050.55 839.806 1052.37C831.911 1057.04 802.403 1071.6 789.8 1077.05C713.087 1110.24 628.342 1125.81 546.402 1121.78C467.031 1117.88 395.433 1099.55 325.724 1065.29C282.033 1043.81 243.663 1018.05 205.043 984.278L190.684 971.72H187.428C180.926 971.72 176.651 977.841 179.139 983.588C181.453 988.932 214.83 1017.09 241.025 1035.81C307.568 1083.34 389.697 1117.54 471.402 1131.74C550.483 1145.48 629.92 1142.81 707.052 1123.83C841.96 1090.62 960.914 1008.44 1040.11 893.72C1123.96 772.263 1157.16 622.357 1132.78 475.22C1122.04 410.384 1097.46 342.007 1064.82 286.152L1058.89 276.009L1061.07 271.114C1064.01 264.527 1064.71 252.016 1062.56 244.603C1059.43 233.857 1049.08 222.725 1038.9 219.168C1033.37 217.234 1021.87 216.502 1016.13 217.719ZM1017.91 235.977C1009.29 238.867 1002.92 249.685 1004.33 259.052C1007.11 277.646 1031.49 283.299 1042.36 267.873L1045.31 263.679L1045.72 257.288L1046.12 250.898L1043.31 245.734C1038.59 237.05 1027.46 232.776 1017.91 235.977ZM340.902 242.427C312.233 247.409 289.686 267.432 281.478 295.197L279.402 302.22L279.128 568.72C278.937 754.096 279.178 837.344 279.922 842.197C284.297 870.758 305.814 894.664 333.525 901.752L341.222 903.72H561.402H781.582L789.279 901.752C793.512 900.669 800.671 897.87 805.189 895.532L813.402 891.28L822.514 882.25L831.626 873.22L835.795 864.72C838.089 860.045 840.703 853.745 841.605 850.72L843.246 845.22L843.824 806.364L844.402 767.508L850.402 765.251C874.082 756.342 900.952 738.616 920.678 718.89C972.816 666.752 992.906 590.563 973.327 519.22C956.543 458.062 911.155 406.991 852.402 383.156L844.402 379.91L843.841 340.565L843.281 301.22L841.561 295.22C836.473 277.468 824.002 261.149 808.648 252.15C800.498 247.374 794.846 245.202 785.582 243.289L777.986 241.72L560.694 241.856C441.183 241.931 342.277 242.188 340.902 242.427ZM197.74 248.97C195.579 251.307 188.364 260.195 181.708 268.72C126.31 339.677 91.6704 424.679 81.4614 514.72C73.2694 586.965 81.0174 659.019 104.43 728.341C142.839 842.061 222.245 938.277 326.902 997.91C430.089 1056.71 552.907 1076.11 669.876 1052.11C712.739 1043.31 752.492 1029.39 792.811 1009.04L811.22 999.751L817.657 1002.92L824.093 1006.09L832.339 1006.52L840.585 1006.95L846.362 1005.27C849.54 1004.35 853.774 1002.56 855.771 1001.3C861.276 997.816 867.778 990.229 870.688 983.895L873.295 978.22L873.672 969.72L874.049 961.22L872.035 955.487C866.851 940.727 854.243 930.714 838.876 929.153L832.35 928.49L825.9 930.142C813.926 933.21 805.212 940.281 799.759 951.358L796.598 957.78L796.161 965C795.921 968.971 796.256 974.245 796.906 976.72C797.556 979.195 798.159 982.304 798.245 983.629L798.402 986.037L786.902 991.972C676.478 1048.96 546.783 1059.79 426.902 1022.03C401.458 1014.01 374.062 1002.69 351.402 990.819C221.597 922.821 131.068 800.394 103.98 656.22C100.838 639.494 98.0904 615.065 96.7824 592.228L95.6044 571.648L96.7584 550.333C98.6034 516.283 101.942 491.969 108.928 461.72C124.641 393.68 155.419 330.398 199.902 274.662C217.102 253.112 217.209 252.873 211.979 247.643L209.056 244.72H205.363H201.671L197.74 248.97ZM339.354 261.116C336.577 261.791 331.238 263.778 327.49 265.532L320.675 268.721L313.432 275.971C306.133 283.276 303.428 287.498 299.529 297.672L297.402 303.22L297.107 569.22L296.811 835.22L297.927 841.22C299.482 849.585 305.838 862.242 311.575 868.401C317.336 874.584 324.835 879.74 332.669 882.905L338.402 885.22L558.402 885.485L778.402 885.75L783.665 884.661C800.499 881.18 816.045 867.415 822.701 850.099L825.345 843.22L825.694 808.344L826.042 773.468L823.498 774.107C805.15 778.712 771.706 780.935 752.902 778.8C709.669 773.891 672.43 758.084 639.661 730.732C624.537 718.109 607.578 698.532 597.846 682.463L594.402 676.777L526.575 676.748L458.748 676.72L455.825 673.797C454.217 672.189 452.902 669.96 452.902 668.844C452.902 665.437 455.144 661.646 458.047 660.145L460.803 658.72H522.852C556.98 658.72 584.902 658.597 584.902 658.447C584.902 658.297 583.392 654.584 581.547 650.197L578.193 642.22L531.297 641.72L484.402 641.22L482.175 639.947C477.104 637.048 476.488 630.98 480.825 626.643L483.748 623.72H528.392H573.037L572.495 621.97C566.547 602.751 565.269 561.815 569.866 537.72C570.968 531.945 571.876 526.883 571.886 526.47C571.895 526.057 546.442 525.72 515.325 525.72H458.748L455.825 522.797C454.217 521.189 452.902 518.917 452.902 517.747C452.902 514.417 455.499 510.225 458.374 508.915L460.996 507.72H519.218H577.44L580.421 500.048C582.061 495.828 583.548 492.015 583.726 491.574C583.905 491.134 561.253 490.649 533.389 490.497L482.728 490.22L480.315 487.414C476.978 483.534 477.161 479.307 480.825 475.643L483.748 472.72H538.268H592.787L600.227 461.47C621.511 429.288 649.488 404.876 684.101 388.285C727.254 367.599 771.559 362.814 822.711 373.314L826.02 373.994L825.704 338.607L825.389 303.22L823.089 296.833C816.654 278.965 801.778 265.496 783.799 261.257L777.402 259.75L560.902 259.82L344.402 259.89L339.354 261.116ZM422.402 310.673C421.302 311.128 411.247 320.785 400.059 332.134L379.715 352.768L369.577 343.494C364.001 338.393 358.558 333.432 357.482 332.47C356.361 331.467 353.935 330.72 351.802 330.72H348.08L345.491 333.797C341.904 338.06 342.111 341.926 346.152 346.132C351.999 352.217 379.703 376.72 380.735 376.72C382.257 376.72 433.198 324.153 434.137 321.613C435.377 318.261 433.186 312.918 429.868 311.203C426.681 309.554 425.34 309.459 422.402 310.673ZM480.825 317.643C476.225 322.243 477.134 328.237 482.882 331.21L485.803 332.72H610.703C696.811 332.72 736.557 332.388 738.672 331.65C742.369 330.361 745.267 325.021 744.318 321.243C743.966 319.838 742.542 317.795 741.155 316.704L738.632 314.72H611.19H483.748L480.825 317.643ZM457.79 351.22C452.366 354.168 451.759 361.889 456.649 365.736L459.172 367.72H586.614H714.056L716.979 364.797C718.587 363.189 719.902 360.96 719.902 359.844C719.902 356.437 717.66 352.646 714.757 351.145L712.001 349.72L586.202 349.76L460.402 349.8L457.79 351.22ZM755.402 386.413C753.202 386.61 746.452 387.693 740.402 388.82C699.12 396.512 665.621 414.497 636.745 444.471C591.999 490.919 574.541 558.044 590.847 620.945C600.686 658.901 622.685 693.213 653.785 719.112C676.33 737.887 706.585 752.119 737.114 758.311L749.402 760.803L766.402 761.397C777.064 761.77 787.316 761.547 793.902 760.799C868.344 752.34 929.808 702.879 953.268 632.554C958.068 618.168 960.655 605.046 962.076 587.891L963.263 573.562L962.05 559.391C960.536 541.713 958.001 529.118 952.978 514.32C942.165 482.468 924.491 455.799 899.423 433.507C870.585 407.863 836.355 392.374 797.101 387.208C786.942 385.87 765.96 385.471 755.402 386.413ZM755.402 407.821C719.204 411.597 684.13 428.014 657.691 453.557C622.348 487.704 604.426 531.526 606.167 579.549C607.903 627.424 628.345 669.511 665.234 701.154C686.214 719.15 715.758 733.116 743.902 738.342L753.402 740.106L773.402 740.135L793.402 740.163L803.286 738.347C825.751 734.219 848.107 725.104 867.867 712.017L879.402 704.377L892.448 691.298L905.495 678.22L913.151 666.72C926.273 647.012 934.858 625.817 939.479 601.72L941.301 592.22V574.22V556.22L939.564 546.72C932.803 509.753 916.056 478.321 889.748 453.22C853.976 419.089 805.245 402.621 755.402 407.821ZM756.304 425.739C687.975 434.378 635.243 485.636 625.295 553.086L623.653 564.22L624.228 579.72C625.3 608.612 633.581 633.596 650.247 658.22C657.79 669.365 675.571 687.347 686.832 695.219C703.901 707.15 725.821 716.421 746.402 720.414L755.402 722.16H773.902H792.402L801.402 720.399C862.824 708.378 909.49 661.683 921.508 600.22L923.267 591.22L923.283 574.22C923.301 554.205 921.757 544.234 915.948 526.857C898.523 474.731 854.693 437.201 799.42 427.076C789.535 425.266 765.857 424.531 756.304 425.739ZM811.148 461.37C809.837 462.46 806.098 470.2 802.04 480.22C790.076 509.762 777.113 542.154 776.528 543.97L775.965 545.72H772.112C762.499 545.72 750.915 553.51 745.886 563.357L743.402 568.22V577.22V586.22L746.352 592.042C749.827 598.901 754.234 603.044 761.856 606.618L767.402 609.219L775.213 609.192L783.025 609.164L798.553 628.455C807.093 639.064 814.911 648.19 815.926 648.733C821.981 651.973 829.386 647.794 829.2 641.242L829.103 637.813L813.675 618.611L798.247 599.408L801.502 594.571C809.779 582.271 807.686 564.081 796.868 554.308L792.893 550.717L808.897 511.169C818.482 487.485 824.902 470.282 824.902 468.282C824.902 463.645 822.213 460.705 817.376 460.057L813.371 459.52L811.148 461.37ZM422.402 468.677C421.302 469.134 411.262 478.761 400.091 490.07L379.779 510.633L369.591 501.37C357.168 490.076 355.24 488.72 351.603 488.72C347.55 488.72 342.902 493.585 342.902 497.827V501.088L347.679 505.654C350.306 508.165 358.825 515.952 366.609 522.958L380.761 535.696L407.036 508.772C421.487 493.964 433.68 480.848 434.132 479.627C435.377 476.261 433.194 470.922 429.868 469.203C426.679 467.553 425.337 467.459 422.402 468.677ZM767.201 565.68C763.067 568.2 760.902 572.481 760.902 578.136V582.65L763.995 586.173C765.696 588.11 768.751 590.194 770.784 590.803L774.481 591.91L778.664 590.784C785.863 588.846 790.293 580.464 787.92 573.273C787.293 571.374 785.217 568.447 783.306 566.77L779.832 563.72L775.117 563.724C772.206 563.726 769.177 564.474 767.201 565.68ZM423.237 626.427C422.046 626.652 411.804 636.276 400.477 647.812L379.883 668.787L367.76 657.753L355.638 646.72H351.859H348.08L345.491 649.797C340.176 656.113 341.493 658.238 362.406 677.103L380.711 693.616L406.849 667.122C421.224 652.551 433.418 639.493 433.946 638.105C436.345 631.793 430.213 625.106 423.237 626.427ZM484.974 783.725C475.077 786.079 475.888 799.368 486.04 801.191C487.889 801.523 545.529 801.666 614.129 801.508L738.857 801.22L741.579 798.497L744.302 795.775V792.22V788.665L741.579 785.943L738.857 783.22L613.629 783.065C544.754 782.979 486.859 783.276 484.974 783.725ZM422.332 784.684C421.194 785.145 411.201 794.866 400.127 806.285L379.991 827.048L370.697 818.603C356.517 805.719 355.129 804.72 351.414 804.72H348.08L345.491 807.797C343.918 809.666 342.902 812.096 342.902 813.99V817.107L348.183 822.163C351.088 824.945 359.594 832.726 367.084 839.456L380.704 851.692L407.182 824.757C422.903 808.765 433.923 796.771 434.309 795.233C435.267 791.418 432.389 786.085 428.672 784.79C425.154 783.563 425.105 783.562 422.332 784.684ZM456.23 821.114L453.447 823.508V827.72V831.932L456.23 834.326L459.014 836.72H586.402H713.79L716.574 834.326L719.357 831.932V827.72V823.508L716.574 821.114L713.79 818.72H586.402H459.014L456.23 821.114ZM96.8094 866.047C94.3854 867.326 91.0734 870.261 89.4484 872.567L86.4944 876.761L86.0924 883.073L85.6904 889.385L87.7054 893.302C96.1334 909.696 118.576 909.652 126.037 893.229C134.163 875.341 114.262 856.833 96.8094 866.047ZM828.487 947.962C826.133 948.584 822.874 950.695 820.312 953.257C806.749 966.82 816.106 989.006 835.39 989.006C842.13 989.006 848.255 985.728 852.312 979.949L855.31 975.679L855.712 969.367L856.114 963.055L854.067 959.043C850.298 951.655 842.272 946.541 834.902 946.829C833.527 946.883 830.64 947.392 828.487 947.962Z" fill="url(#paint0_linear_187_773)"/>
<defs>
<linearGradient id="paint0_linear_187_773" x1="261" y1="123.5" x2="928" y2="1027.5" gradientUnits="userSpaceOnUse">
<stop stop-color="#81F2F6"/>
<stop offset="1" stop-color="#3D56D5"/>
</linearGradient>
</defs>
</svg>
